<svg width="127" height="127" viewBox="0 0 127 127" fill="none" xmlns="http://www.w3.org/2000/svg">
<g clip-path="url(#clip0_172_117)">
<path d="M57.5469 29.7656C57.5469 26.4666 60.201 23.8125 63.5 23.8125C66.799 23.8125 69.4531 26.4666 69.4531 29.7656V60.325L90.6115 74.4141C93.34 76.2496 94.0842 79.9455 92.0502 82.674C90.4379 85.4025 86.742 86.1467 84.0135 84.1127L60.201 68.2377C58.5391 67.3447 57.5469 65.4844 57.5469 63.2768V29.7656ZM63.5 0C98.5738 0 127 28.4262 127 63.5C127 98.5738 98.5738 127 63.5 127C28.4262 127 0 98.5738 0 63.5C0 28.4262 28.4262 0 63.5 0ZM11.9062 63.5C11.9062 92.0006 34.9994 115.094 63.5 115.094C92.0006 115.094 115.094 92.0006 115.094 63.5C115.094 34.9994 92.0006 11.9062 63.5 11.9062C34.9994 11.9062 11.9062 34.9994 11.9062 63.5Z" fill="#FFAC30"/>
</g>
<defs>
<clipPath id="clip0_172_117">
<rect width="127" height="127" fill="white"/>
</clipPath>
</defs>
</svg>
