<svg width="20" height="20" viewBox="0 0 20 20" fill="none" xmlns="http://www.w3.org/2000/svg">
<path fill-rule="evenodd" clip-rule="evenodd" d="M3.707 2.29304C3.51839 2.11088 3.26579 2.01009 3.00359 2.01237C2.7414 2.01465 2.49058 2.11981 2.30518 2.30522C2.11977 2.49063 2.0146 2.74144 2.01232 3.00364C2.01004 3.26584 2.11084 3.51844 2.293 3.70704L16.293 17.707C16.4816 17.8892 16.7342 17.99 16.9964 17.9877C17.2586 17.9854 17.5094 17.8803 17.6948 17.6949C17.8802 17.5095 17.9854 17.2586 17.9877 16.9964C17.9899 16.7342 17.8892 16.4816 17.707 16.293L16.234 14.82C17.7915 13.5782 18.9433 11.9 19.542 10C18.268 5.94304 14.478 3.00004 10 3.00004C8.43243 2.99792 6.8865 3.3659 5.488 4.07404L3.708 2.29304H3.707ZM7.968 6.55304L9.482 8.06804C9.82109 7.97799 10.1779 7.97859 10.5167 8.06977C10.8555 8.16095 11.1643 8.33952 11.4124 8.58761C11.6605 8.83569 11.8391 9.14458 11.9303 9.48337C12.0214 9.82216 12.022 10.179 11.932 10.518L13.446 12.032C13.897 11.2681 14.0812 10.3758 13.9696 9.49572C13.8581 8.6156 13.4571 7.79754 12.8298 7.17022C12.2025 6.5429 11.3844 6.14193 10.5043 6.03039C9.6242 5.91885 8.73197 6.10305 7.968 6.55404V6.55304Z" fill="#AAAAAA"/>
<path d="M12.454 16.697L9.74999 13.992C8.77768 13.9311 7.86102 13.5174 7.17205 12.8286C6.48308 12.1398 6.06917 11.2233 6.00799 10.251L2.33499 6.578C1.4902 7.58402 0.852342 8.74692 0.457993 10C1.73199 14.057 5.52299 17 9.99999 17C10.847 17 11.669 16.895 12.454 16.697Z" fill="#AAAAAA"/>
</svg>
